<svg width="350" height="300" viewBox="0 0 350 300" fill="none" xmlns="http://www.w3.org/2000/svg">
<path d="M175 168C168.696 168 143.48 200.827 143.48 209.027C143.48 217.227 168.696 250 175 250C181.304 250 206.52 217.227 206.52 209.027C206.52 200.827 181.304 168 175 168Z" fill="#F25076" fill-opacity="0.4"/>
<path d="M162.272 162.728C157.814 158.27 116.772 163.651 110.974 169.45C105.175 175.248 99.8316 216.253 104.289 220.711C108.747 225.168 149.752 219.825 155.55 214.026C161.349 208.228 166.73 167.186 162.272 162.728Z" fill="#F25076" fill-opacity="0.4"/>
<path d="M157 150C157 143.696 124.173 118.48 115.973 118.48C107.773 118.48 75 143.696 75 150C75 156.304 107.773 181.52 115.973 181.52C124.173 181.52 157 156.304 157 150Z" fill="#F25076" fill-opacity="0.4"/>
<path d="M162.272 137.272C166.73 132.814 161.349 91.772 155.55 85.9737C149.752 80.1754 108.747 74.8316 104.289 79.2893C99.8316 83.747 105.175 124.752 110.974 130.55C116.772 136.349 157.814 141.73 162.272 137.272Z" fill="#F25076" fill-opacity="0.4"/>
<path d="M175 132C181.304 132 206.52 99.1735 206.52 90.9735C206.52 82.7735 181.304 50 175 50C168.696 50 143.48 82.7735 143.48 90.9735C143.48 99.1735 168.696 132 175 132Z" fill="#F25076" fill-opacity="0.4"/>
<path d="M187.728 137.272C192.186 141.73 233.228 136.349 239.026 130.55C244.825 124.752 250.168 83.747 245.711 79.2893C241.253 74.8316 200.248 80.1754 194.45 85.9737C188.651 91.772 183.27 132.814 187.728 137.272Z" fill="#F25076" fill-opacity="0.4"/>
<path d="M193 150C193 156.304 225.827 181.52 234.027 181.52C242.227 181.52 275 156.304 275 150C275 143.696 242.227 118.48 234.027 118.48C225.827 118.48 193 143.696 193 150Z" fill="#F25076" fill-opacity="0.4"/>
<path d="M187.728 162.728C183.27 167.186 188.651 208.228 194.45 214.026C200.248 219.825 241.253 225.168 245.711 220.711C250.168 216.253 244.825 175.248 239.026 169.45C233.228 163.651 192.186 158.27 187.728 162.728Z" fill="#F25076" fill-opacity="0.4"/>
<path d="M175 168C170.797 168 153.986 195.951 153.986 200.818C153.986 205.684 170.797 216.667 175 216.667C179.203 216.667 196.014 205.684 196.014 200.818C196.014 195.951 179.203 168 175 168Z" fill="#F25076" fill-opacity="0.4"/>
<path d="M162.272 162.728C159.3 159.756 127.649 167.633 124.208 171.075C120.766 174.516 124.888 194.169 127.86 197.14C130.831 200.112 150.484 204.234 153.925 200.792C157.367 197.351 165.244 165.7 162.272 162.728Z" fill="#F25076" fill-opacity="0.4"/>
<path d="M157 150C157 145.797 129.049 128.986 124.182 128.986C119.316 128.986 108.333 145.797 108.333 150C108.333 154.203 119.316 171.014 124.182 171.014C129.049 171.014 157 154.203 157 150Z" fill="#F25076" fill-opacity="0.4"/>
<path d="M162.272 137.272C165.244 134.3 157.367 102.649 153.925 99.2077C150.484 95.7664 130.831 99.8877 127.86 102.86C124.888 105.831 120.766 125.484 124.208 128.925C127.649 132.367 159.3 140.244 162.272 137.272Z" fill="#F25076" fill-opacity="0.4"/>
<path d="M175 132C179.203 132 196.014 104.049 196.014 99.1824C196.014 94.3157 179.203 83.3333 175 83.3333C170.797 83.3333 153.986 94.3157 153.986 99.1824C153.986 104.049 170.797 132 175 132Z" fill="#F25076" fill-opacity="0.4"/>
<path d="M187.728 137.272C190.7 140.244 222.351 132.367 225.792 128.925C229.234 125.484 225.112 105.831 222.14 102.86C219.169 99.8877 199.516 95.7664 196.075 99.2077C192.633 102.649 184.756 134.3 187.728 137.272Z" fill="#F25076" fill-opacity="0.4"/>
<path d="M193 150C193 154.203 220.951 171.014 225.818 171.014C230.684 171.014 241.667 154.203 241.667 150C241.667 145.797 230.684 128.986 225.818 128.986C220.951 128.986 193 145.797 193 150Z" fill="#F25076" fill-opacity="0.4"/>
<path d="M187.728 162.728C184.756 165.7 192.633 197.351 196.075 200.792C199.516 204.234 219.169 200.112 222.14 197.14C225.112 194.169 229.234 174.516 225.792 171.075C222.351 167.633 190.7 159.756 187.728 162.728Z" fill="#F25076" fill-opacity="0.4"/>
<path d="M175 168C173.599 168 167.995 189.45 167.995 189.872C167.995 190.295 173.599 172.222 175 172.222C176.401 172.222 182.004 190.295 182.004 189.872C182.004 189.45 176.401 168 175 168Z" fill="#F25076" fill-opacity="0.4"/>
<path d="M162.272 162.728C161.282 161.737 142.151 172.943 141.853 173.241C141.554 173.54 158.296 164.723 159.286 165.713C160.277 166.704 151.46 183.446 151.759 183.147C152.057 182.848 163.263 163.718 162.272 162.728Z" fill="#F25076" fill-opacity="0.4"/>
<path d="M157 150C157 148.599 135.55 142.995 135.127 142.995C134.705 142.995 152.778 148.599 152.778 150C152.778 151.401 134.705 157.004 135.127 157.004C135.55 157.004 157 151.401 157 150Z" fill="#F25076" fill-opacity="0.4"/>
<path d="M162.272 137.272C163.263 136.282 152.057 117.151 151.759 116.853C151.46 116.554 160.277 133.296 159.286 134.286C158.296 135.277 141.554 126.46 141.853 126.759C142.151 127.057 161.282 138.263 162.272 137.272Z" fill="#F25076" fill-opacity="0.4"/>
<path d="M175 132C176.401 132 182.004 110.55 182.004 110.128C182.004 109.705 176.401 127.778 175 127.778C173.599 127.778 167.995 109.705 167.995 110.128C167.995 110.55 173.599 132 175 132Z" fill="#F25076" fill-opacity="0.4"/>
<path d="M187.728 137.272C188.718 138.263 207.848 127.057 208.147 126.759C208.446 126.46 191.704 135.277 190.713 134.286C189.723 133.296 198.54 116.554 198.241 116.853C197.943 117.151 186.737 136.282 187.728 137.272Z" fill="#F25076" fill-opacity="0.4"/>
<path d="M193 150C193 151.401 214.45 157.004 214.872 157.004C215.295 157.004 197.222 151.401 197.222 150C197.222 148.599 215.295 142.995 214.872 142.995C214.45 142.995 193 148.599 193 150Z" fill="#F25076" fill-opacity="0.4"/>
<path d="M187.728 162.728C186.737 163.718 197.943 182.848 198.241 183.147C198.54 183.446 189.723 166.704 190.713 165.713C191.704 164.723 208.446 173.54 208.147 173.241C207.848 172.943 188.718 161.737 187.728 162.728Z" fill="#F25076" fill-opacity="0.4"/>
</svg>
